{
    "asset" : {
        "generator" : "Khronos glTF Blender I/O v1.7.33",
        "version" : "2.0"
    },
    "scene" : 0,
    "scenes" : [
        {
            "name" : "Scene",
            "nodes" : [
                0,
                1,
                2
            ]
        }
    ],
    "nodes" : [
        {
            "mesh" : 0,
            "name" : "Eyes",
            "rotation" : [
                -0.2516767978668213,
                -0.022582290694117546,
                0.08646807819604874,
                0.9636763334274292
            ],
            "scale" : [
                0.12335710972547531,
                0.19790151715278625,
                0.12335710972547531
            ],
            "translation" : [
                0.5355393886566162,
                0.40953007340431213,
                0.8111845254898071
            ]
        },
        {
            "mesh" : 1,
            "name" : "Hat",
            "scale" : [
                1,
                0.5425755977630615,
                1
            ]
        },
        {
            "mesh" : 2,
            "name" : "Head"
        }
    ],
    "materials" : [
        {
            "doubleSided" : true,
            "name" : "Eyeball",
            "pbrMetallicRoughness" : {
                "baseColorFactor" : [
                    0,
                    0,
                    0,
                    1
                ],
                "metallicFactor" : 0,
                "roughnessFactor" : 0.5
            }
        },
        {
            "doubleSided" : true,
            "name" : "Helmet",
            "pbrMetallicRoughness" : {
                "baseColorFactor" : [
                    0.1574336737394333,
                    0.1574336737394333,
                    0.1574336737394333,
                    1
                ],
                "metallicFactor" : 0.6220472455024719,
                "roughnessFactor" : 0.5
            }
        },
        {
            "doubleSided" : true,
            "name" : "Moleskin",
            "pbrMetallicRoughness" : {
                "baseColorFactor" : [
                    0.3108125627040863,
                    0.049299873411655426,
                    0,
                    1
                ],
                "metallicFactor" : 0,
                "roughnessFactor" : 0.5
            }
        }
    ],
    "meshes" : [
        {
            "name" : "Sphere.002",
            "primitives" : [
                {
                    "attributes" : {
                        "POSITION" : 0,
                        "NORMAL" : 1,
                        "TEXCOORD_0" : 2
                    },
                    "indices" : 3,
                    "material" : 0
                }
            ]
        },
        {
            "name" : "Sphere.001",
            "primitives" : [
                {
                    "attributes" : {
                        "POSITION" : 4,
                        "NORMAL" : 5,
                        "TEXCOORD_0" : 6
                    },
                    "indices" : 7,
                    "material" : 1
                }
            ]
        },
        {
            "name" : "Sphere",
            "primitives" : [
                {
                    "attributes" : {
                        "POSITION" : 8,
                        "NORMAL" : 9,
                        "TEXCOORD_0" : 10
                    },
                    "indices" : 11,
                    "material" : 2
                }
            ]
        }
    ],
    "accessors" : [
        {
            "bufferView" : 0,
            "componentType" : 5126,
            "count" : 302,
            "max" : [
                1,
                1.7926673889160156,
                1.740661859512329
            ],
            "min" : [
                -9.597005844116211,
                -1,
                -0.9999998211860657
            ],
            "type" : "VEC3"
        },
        {
            "bufferView" : 1,
            "componentType" : 5126,
            "count" : 302,
            "type" : "VEC3"
        },
        {
            "bufferView" : 2,
            "componentType" : 5126,
            "count" : 302,
            "type" : "VEC2"
        },
        {
            "bufferView" : 3,
            "componentType" : 5123,
            "count" : 1344,
            "type" : "SCALAR"
        },
        {
            "bufferView" : 4,
            "componentType" : 5126,
            "count" : 118,
            "max" : [
                1.1472129821777344,
                2.2728943824768066,
                1.3319017887115479
            ],
            "min" : [
                -1.1472125053405762,
                1.2885571718215942,
                -1.1526427268981934
            ],
            "type" : "VEC3"
        },
        {
            "bufferView" : 5,
            "componentType" : 5126,
            "count" : 118,
            "type" : "VEC3"
        },
        {
            "bufferView" : 6,
            "componentType" : 5126,
            "count" : 118,
            "type" : "VEC2"
        },
        {
            "bufferView" : 7,
            "componentType" : 5123,
            "count" : 528,
            "type" : "SCALAR"
        },
        {
            "bufferView" : 8,
            "componentType" : 5126,
            "count" : 168,
            "max" : [
                1,
                1,
                1.7036594152450562
            ],
            "min" : [
                -0.9999999403953552,
                -1,
                -0.9999998211860657
            ],
            "type" : "VEC3"
        },
        {
            "bufferView" : 9,
            "componentType" : 5126,
            "count" : 168,
            "type" : "VEC3"
        },
        {
            "bufferView" : 10,
            "componentType" : 5126,
            "count" : 168,
            "type" : "VEC2"
        },
        {
            "bufferView" : 11,
            "componentType" : 5123,
            "count" : 768,
            "type" : "SCALAR"
        }
    ],
    "bufferViews" : [
        {
            "buffer" : 0,
            "byteLength" : 3624,
            "byteOffset" : 0
        },
        {
            "buffer" : 0,
            "byteLength" : 3624,
            "byteOffset" : 3624
        },
        {
            "buffer" : 0,
            "byteLength" : 2416,
            "byteOffset" : 7248
        },
        {
            "buffer" : 0,
            "byteLength" : 2688,
            "byteOffset" : 9664
        },
        {
            "buffer" : 0,
            "byteLength" : 1416,
            "byteOffset" : 12352
        },
        {
            "buffer" : 0,
            "byteLength" : 1416,
            "byteOffset" : 13768
        },
        {
            "buffer" : 0,
            "byteLength" : 944,
            "byteOffset" : 15184
        },
        {
            "buffer" : 0,
            "byteLength" : 1056,
            "byteOffset" : 16128
        },
        {
            "buffer" : 0,
            "byteLength" : 2016,
            "byteOffset" : 17184
        },
        {
            "buffer" : 0,
            "byteLength" : 2016,
            "byteOffset" : 19200
        },
        {
            "buffer" : 0,
            "byteLength" : 1344,
            "byteOffset" : 21216
        },
        {
            "buffer" : 0,
            "byteLength" : 1536,
            "byteOffset" : 22560
        }
    ],
    "buffers" : [
        {
            "byteLength" : 24096,
            "uri" : "data:application/octet-stream;base64,"
        }
    ]
}
